<mxfile host="app.diagrams.net" modified="2024-01-19T17:17:34.963Z" agent="Mozilla/5.0 (Windows NT 10.0; Win64; x64) AppleWebKit/537.36 (KHTML, like Gecko) Chrome/120.0.0.0 Safari/537.36" etag="r4MConS-DlLTjCP59nI1" version="22.1.21" type="device">
  <diagram name="Page-1" id="4Gy_bDBG1OQVKbwCDC3K">
    <mxGraphModel dx="1687" dy="922" grid="1" gridSize="10" guides="1" tooltips="1" connect="1" arrows="1" fold="1" page="1" pageScale="1" pageWidth="850" pageHeight="1100" math="0" shadow="0">
      <root>
        <mxCell id="0" />
        <mxCell id="1" parent="0" />
        <mxCell id="e89wq8Fbd3lWtIG_crRo-18" value="" style="endArrow=none;dashed=1;html=1;dashPattern=1 3;strokeWidth=2;rounded=0;" parent="1" edge="1">
          <mxGeometry width="50" height="50" relative="1" as="geometry">
            <mxPoint x="1200" y="320" as="sourcePoint" />
            <mxPoint x="560" y="320" as="targetPoint" />
          </mxGeometry>
        </mxCell>
        <mxCell id="e89wq8Fbd3lWtIG_crRo-19" value="" style="endArrow=none;dashed=1;html=1;dashPattern=1 3;strokeWidth=2;rounded=0;" parent="1" edge="1">
          <mxGeometry width="50" height="50" relative="1" as="geometry">
            <mxPoint x="1200" y="1000" as="sourcePoint" />
            <mxPoint x="1200" y="320" as="targetPoint" />
          </mxGeometry>
        </mxCell>
        <mxCell id="e89wq8Fbd3lWtIG_crRo-20" value="&lt;font style=&quot;font-size: 18px;&quot;&gt;CORE BANKING MOCK&lt;/font&gt;" style="rounded=0;whiteSpace=wrap;html=1;rotation=90;" parent="1" vertex="1">
          <mxGeometry x="1099.5" y="560.5" width="280" height="43" as="geometry" />
        </mxCell>
        <mxCell id="e89wq8Fbd3lWtIG_crRo-25" value="" style="dashed=1;dashPattern=8 4;endArrow=blockThin;endFill=1;startArrow=oval;startFill=0;endSize=6;startSize=4;html=1;rounded=0;entryX=0;entryY=0.5;entryDx=0;entryDy=0;entryPerimeter=0;exitX=0.25;exitY=1;exitDx=0;exitDy=0;" parent="1" source="e89wq8Fbd3lWtIG_crRo-20" edge="1">
          <mxGeometry width="160" relative="1" as="geometry">
            <mxPoint x="1225" y="647" as="sourcePoint" />
            <mxPoint x="1099.5" y="494" as="targetPoint" />
          </mxGeometry>
        </mxCell>
        <mxCell id="e89wq8Fbd3lWtIG_crRo-26" value="" style="dashed=1;dashPattern=8 4;endArrow=blockThin;endFill=1;startArrow=oval;startFill=0;endSize=6;startSize=4;html=1;rounded=0;entryX=1;entryY=0;entryDx=0;entryDy=0;entryPerimeter=0;" parent="1" source="bMZ-CFGxSxBBJkhELFY9-5" target="e89wq8Fbd3lWtIG_crRo-34" edge="1">
          <mxGeometry width="160" relative="1" as="geometry">
            <mxPoint x="990" y="390" as="sourcePoint" />
            <mxPoint x="893" y="520" as="targetPoint" />
          </mxGeometry>
        </mxCell>
        <mxCell id="e89wq8Fbd3lWtIG_crRo-27" value="" style="endArrow=none;dashed=1;html=1;dashPattern=1 3;strokeWidth=2;rounded=0;" parent="1" edge="1">
          <mxGeometry width="50" height="50" relative="1" as="geometry">
            <mxPoint x="560" y="1000" as="sourcePoint" />
            <mxPoint x="560" y="320" as="targetPoint" />
          </mxGeometry>
        </mxCell>
        <mxCell id="e89wq8Fbd3lWtIG_crRo-28" value="" style="endArrow=none;dashed=1;html=1;dashPattern=1 3;strokeWidth=2;rounded=0;" parent="1" edge="1">
          <mxGeometry width="50" height="50" relative="1" as="geometry">
            <mxPoint x="1200" y="1000" as="sourcePoint" />
            <mxPoint x="560" y="1000" as="targetPoint" />
          </mxGeometry>
        </mxCell>
        <mxCell id="e89wq8Fbd3lWtIG_crRo-41" style="edgeStyle=orthogonalEdgeStyle;rounded=0;orthogonalLoop=1;jettySize=auto;html=1;exitX=0.5;exitY=1;exitDx=0;exitDy=0;" parent="1" source="e89wq8Fbd3lWtIG_crRo-29" target="e89wq8Fbd3lWtIG_crRo-34" edge="1">
          <mxGeometry relative="1" as="geometry" />
        </mxCell>
        <mxCell id="e89wq8Fbd3lWtIG_crRo-29" value="&lt;font style=&quot;font-size: 18px;&quot;&gt;FRONTEND API&lt;/font&gt;" style="rounded=0;whiteSpace=wrap;html=1;rotation=-90;" parent="1" vertex="1">
          <mxGeometry x="380" y="560.5" width="280" height="42" as="geometry" />
        </mxCell>
        <mxCell id="e89wq8Fbd3lWtIG_crRo-40" style="edgeStyle=orthogonalEdgeStyle;rounded=0;orthogonalLoop=1;jettySize=auto;html=1;exitX=1;exitY=0.5;exitDx=0;exitDy=0;exitPerimeter=0;entryX=0.5;entryY=1;entryDx=0;entryDy=0;" parent="1" source="e89wq8Fbd3lWtIG_crRo-34" target="e89wq8Fbd3lWtIG_crRo-20" edge="1">
          <mxGeometry relative="1" as="geometry" />
        </mxCell>
        <mxCell id="e89wq8Fbd3lWtIG_crRo-43" value="&lt;b&gt;&lt;font style=&quot;font-size: 24px;&quot;&gt;CREDIT-INVOICE&lt;/font&gt;&lt;/b&gt;" style="text;html=1;align=center;verticalAlign=middle;resizable=0;points=[];autosize=1;strokeColor=none;fillColor=none;" parent="1" vertex="1">
          <mxGeometry x="748.5" y="960" width="220" height="40" as="geometry" />
        </mxCell>
        <mxCell id="e89wq8Fbd3lWtIG_crRo-44" value="&lt;font style=&quot;font-size: 18px;&quot;&gt;CUSTOMER SERVICE MOCK&lt;/font&gt;" style="rounded=0;whiteSpace=wrap;html=1;rotation=0;" parent="1" vertex="1">
          <mxGeometry x="713" y="260" width="298" height="40" as="geometry" />
        </mxCell>
        <mxCell id="e89wq8Fbd3lWtIG_crRo-46" value="" style="dashed=1;dashPattern=8 4;endArrow=blockThin;endFill=1;startArrow=oval;startFill=0;endSize=6;startSize=4;html=1;rounded=0;exitX=0.5;exitY=1;exitDx=0;exitDy=0;entryX=0.5;entryY=0;entryDx=0;entryDy=0;entryPerimeter=0;" parent="1" source="e89wq8Fbd3lWtIG_crRo-44" edge="1">
          <mxGeometry width="160" relative="1" as="geometry">
            <mxPoint x="872" y="430" as="sourcePoint" />
            <mxPoint x="862" y="370" as="targetPoint" />
          </mxGeometry>
        </mxCell>
        <mxCell id="bMZ-CFGxSxBBJkhELFY9-14" style="edgeStyle=orthogonalEdgeStyle;rounded=0;orthogonalLoop=1;jettySize=auto;html=1;exitX=0.5;exitY=1;exitDx=0;exitDy=0;exitPerimeter=0;" edge="1" parent="1" source="e89wq8Fbd3lWtIG_crRo-34" target="e89wq8Fbd3lWtIG_crRo-51">
          <mxGeometry relative="1" as="geometry" />
        </mxCell>
        <mxCell id="e89wq8Fbd3lWtIG_crRo-34" value="" style="outlineConnect=0;dashed=0;verticalLabelPosition=bottom;verticalAlign=top;align=center;html=1;shape=mxgraph.aws3.ec2_compute_container_2;fillColor=#F58534;gradientColor=none;" parent="1" vertex="1">
          <mxGeometry x="785.25" y="537.5" width="153.5" height="88" as="geometry" />
        </mxCell>
        <mxCell id="e89wq8Fbd3lWtIG_crRo-51" value="" style="image;sketch=0;aspect=fixed;html=1;points=[];align=center;fontSize=12;image=img/lib/mscae/Cache_Redis_Product.svg;" parent="1" vertex="1">
          <mxGeometry x="826.2800000000001" y="740" width="71.43" height="60" as="geometry" />
        </mxCell>
        <mxCell id="bMZ-CFGxSxBBJkhELFY9-1" value="" style="outlineConnect=0;dashed=0;verticalLabelPosition=bottom;verticalAlign=top;align=center;html=1;shape=mxgraph.aws3.dynamo_db;fillColor=#2E73B8;gradientColor=none;" vertex="1" parent="1">
          <mxGeometry x="938.75" y="809" width="72" height="81" as="geometry" />
        </mxCell>
        <mxCell id="bMZ-CFGxSxBBJkhELFY9-2" value="CUSTOMERS QUEUE" style="sketch=0;outlineConnect=0;fontColor=#232F3E;gradientColor=none;strokeColor=#ffffff;fillColor=#232F3E;dashed=0;verticalLabelPosition=middle;verticalAlign=bottom;align=center;html=1;whiteSpace=wrap;fontSize=10;fontStyle=1;spacing=3;shape=mxgraph.aws4.productIcon;prIcon=mxgraph.aws4.sqs;" vertex="1" parent="1">
          <mxGeometry x="822" y="370" width="80" height="110" as="geometry" />
        </mxCell>
        <mxCell id="e89wq8Fbd3lWtIG_crRo-32" value="" style="dashed=1;dashPattern=8 4;endArrow=blockThin;endFill=1;startArrow=oval;startFill=0;endSize=6;startSize=4;html=1;rounded=0;entryX=0.5;entryY=0;entryDx=0;entryDy=0;entryPerimeter=0;" parent="1" source="bMZ-CFGxSxBBJkhELFY9-2" target="e89wq8Fbd3lWtIG_crRo-34" edge="1">
          <mxGeometry width="160" relative="1" as="geometry">
            <mxPoint x="970" y="440" as="sourcePoint" />
            <mxPoint x="862" y="520" as="targetPoint" />
          </mxGeometry>
        </mxCell>
        <mxCell id="bMZ-CFGxSxBBJkhELFY9-5" value="PURCHASES&lt;br&gt;QUEUE" style="sketch=0;outlineConnect=0;fontColor=#232F3E;gradientColor=none;strokeColor=#ffffff;fillColor=#232F3E;dashed=0;verticalLabelPosition=middle;verticalAlign=bottom;align=center;html=1;whiteSpace=wrap;fontSize=10;fontStyle=1;spacing=3;shape=mxgraph.aws4.productIcon;prIcon=mxgraph.aws4.sqs;" vertex="1" parent="1">
          <mxGeometry x="1019.5" y="450" width="80" height="110" as="geometry" />
        </mxCell>
        <mxCell id="bMZ-CFGxSxBBJkhELFY9-9" value="&lt;span style=&quot;font-size: 10px;&quot;&gt;&lt;b&gt;CACHE&lt;/b&gt;&lt;/span&gt;" style="text;html=1;strokeColor=none;fillColor=none;align=center;verticalAlign=middle;whiteSpace=wrap;rounded=0;" vertex="1" parent="1">
          <mxGeometry x="828.5" y="800" width="60" height="20" as="geometry" />
        </mxCell>
        <mxCell id="bMZ-CFGxSxBBJkhELFY9-10" value="&lt;span style=&quot;font-size: 10px;&quot;&gt;&lt;b&gt;TRANSACTIONS&lt;br&gt;TABLE&lt;br&gt;&lt;/b&gt;&lt;/span&gt;" style="text;html=1;strokeColor=none;fillColor=none;align=center;verticalAlign=middle;whiteSpace=wrap;rounded=0;" vertex="1" parent="1">
          <mxGeometry x="944.75" y="900" width="60" height="19" as="geometry" />
        </mxCell>
        <mxCell id="bMZ-CFGxSxBBJkhELFY9-11" value="" style="dashed=1;dashPattern=8 4;endArrow=blockThin;endFill=1;startArrow=oval;startFill=0;endSize=6;startSize=4;html=1;rounded=0;entryX=0;entryY=0.5;entryDx=0;entryDy=0;entryPerimeter=0;exitX=0.664;exitY=1.047;exitDx=0;exitDy=0;exitPerimeter=0;" edge="1" parent="1" source="e89wq8Fbd3lWtIG_crRo-20">
          <mxGeometry width="160" relative="1" as="geometry">
            <mxPoint x="1218.5" y="682" as="sourcePoint" />
            <mxPoint x="1100" y="664" as="targetPoint" />
          </mxGeometry>
        </mxCell>
        <mxCell id="bMZ-CFGxSxBBJkhELFY9-12" value="" style="dashed=1;dashPattern=8 4;endArrow=blockThin;endFill=1;startArrow=oval;startFill=0;endSize=6;startSize=4;html=1;rounded=0;entryX=1;entryY=1;entryDx=0;entryDy=0;entryPerimeter=0;" edge="1" parent="1" source="bMZ-CFGxSxBBJkhELFY9-13" target="e89wq8Fbd3lWtIG_crRo-34">
          <mxGeometry width="160" relative="1" as="geometry">
            <mxPoint x="990.5" y="560" as="sourcePoint" />
            <mxPoint x="900.5" y="708" as="targetPoint" />
          </mxGeometry>
        </mxCell>
        <mxCell id="bMZ-CFGxSxBBJkhELFY9-13" value="BATCHES&lt;br&gt;QUEUE" style="sketch=0;outlineConnect=0;fontColor=#232F3E;gradientColor=none;strokeColor=#ffffff;fillColor=#232F3E;dashed=0;verticalLabelPosition=middle;verticalAlign=bottom;align=center;html=1;whiteSpace=wrap;fontSize=10;fontStyle=1;spacing=3;shape=mxgraph.aws4.productIcon;prIcon=mxgraph.aws4.sqs;" vertex="1" parent="1">
          <mxGeometry x="1020" y="620" width="80" height="110" as="geometry" />
        </mxCell>
        <mxCell id="bMZ-CFGxSxBBJkhELFY9-15" value="" style="outlineConnect=0;dashed=0;verticalLabelPosition=bottom;verticalAlign=top;align=center;html=1;shape=mxgraph.aws3.dynamo_db;fillColor=#2E73B8;gradientColor=none;" vertex="1" parent="1">
          <mxGeometry x="713.25" y="800" width="72" height="81" as="geometry" />
        </mxCell>
        <mxCell id="bMZ-CFGxSxBBJkhELFY9-16" value="&lt;span style=&quot;font-size: 10px;&quot;&gt;&lt;b&gt;CUSTOMERS&lt;br&gt;TABLE&lt;br&gt;&lt;/b&gt;&lt;/span&gt;" style="text;html=1;strokeColor=none;fillColor=none;align=center;verticalAlign=middle;whiteSpace=wrap;rounded=0;" vertex="1" parent="1">
          <mxGeometry x="719.25" y="890" width="60" height="19" as="geometry" />
        </mxCell>
        <mxCell id="bMZ-CFGxSxBBJkhELFY9-17" style="edgeStyle=orthogonalEdgeStyle;rounded=0;orthogonalLoop=1;jettySize=auto;html=1;exitX=0.75;exitY=1;exitDx=0;exitDy=0;exitPerimeter=0;entryX=0.5;entryY=0;entryDx=0;entryDy=0;entryPerimeter=0;" edge="1" parent="1" source="e89wq8Fbd3lWtIG_crRo-34" target="bMZ-CFGxSxBBJkhELFY9-1">
          <mxGeometry relative="1" as="geometry" />
        </mxCell>
        <mxCell id="bMZ-CFGxSxBBJkhELFY9-18" style="edgeStyle=orthogonalEdgeStyle;rounded=0;orthogonalLoop=1;jettySize=auto;html=1;exitX=0.25;exitY=1;exitDx=0;exitDy=0;exitPerimeter=0;entryX=0.5;entryY=0;entryDx=0;entryDy=0;entryPerimeter=0;" edge="1" parent="1" source="e89wq8Fbd3lWtIG_crRo-34" target="bMZ-CFGxSxBBJkhELFY9-15">
          <mxGeometry relative="1" as="geometry" />
        </mxCell>
        <mxCell id="bMZ-CFGxSxBBJkhELFY9-20" value="&lt;span style=&quot;font-size: 10px;&quot;&gt;&lt;b&gt;CREDIT-INVOICE&lt;br&gt;MICROSERVICE&lt;br&gt;&lt;/b&gt;&lt;/span&gt;" style="text;html=1;strokeColor=none;fillColor=none;align=center;verticalAlign=middle;whiteSpace=wrap;rounded=0;" vertex="1" parent="1">
          <mxGeometry x="805.85" y="630" width="112.29" height="19" as="geometry" />
        </mxCell>
      </root>
    </mxGraphModel>
  </diagram>
</mxfile>
